<?xml version="1.0" encoding="UTF-8" standalone="no"?><svg xmlns="http://www.w3.org/2000/svg" xmlns:xlink="http://www.w3.org/1999/xlink" contentScriptType="application/ecmascript" contentStyleType="text/css" height="279px" preserveAspectRatio="none" style="width:763px;height:279px;" version="1.1" viewBox="0 0 763 279" width="763px" zoomAndPan="magnify"><defs/><g><ellipse cx="507.9706" cy="20.8774" fill="#F8F8F8" rx="19.9706" ry="12.8774" style="stroke: #383838; stroke-width: 0.5;"/><text fill="#000000" font-family="Tahoma, sans-serif" font-size="12" lengthAdjust="spacingAndGlyphs" textLength="24" x="495.9706" y="24.3618">App</text><ellipse cx="377.1985" cy="76.3774" fill="#F8F8F8" rx="32.6985" ry="12.8774" style="stroke: #383838; stroke-width: 0.5;"/><text fill="#000000" font-family="Tahoma, sans-serif" font-size="12" lengthAdjust="spacingAndGlyphs" textLength="42" x="356.1985" y="79.8618">Embed</text><!--MD5=[2e519e0db6bf01d2458e502c58be80fb]
entity _github--><rect fill="#F8F8F8" height="33.9688" rx="3" ry="3" style="stroke: #000000; stroke-width: 0.5;" width="58" x="538" y="174"/><text fill="#000000" font-family="Tahoma, sans-serif" font-size="12" lengthAdjust="spacingAndGlyphs" textLength="38" x="548" y="195.1387">github</text><ellipse cx="461.9558" cy="76.3774" fill="#F8F8F8" rx="28.4558" ry="12.8774" style="stroke: #383838; stroke-width: 0.5;"/><text fill="#000000" font-family="Tahoma, sans-serif" font-size="12" lengthAdjust="spacingAndGlyphs" textLength="36" x="443.9558" y="79.8618">Home</text><ellipse cx="442.0772" cy="20.8774" fill="#F8F8F8" rx="30.5772" ry="12.8774" style="stroke: #383838; stroke-width: 0.5;"/><text fill="#000000" font-family="Tahoma, sans-serif" font-size="12" font-weight="bold" lengthAdjust="spacingAndGlyphs" textLength="39" x="422.5772" y="24.3618">index</text><ellipse cx="302.0416" cy="76.3774" fill="#F8F8F8" rx="27.0416" ry="12.8774" style="stroke: #383838; stroke-width: 0.5;"/><text fill="#000000" font-family="Tahoma, sans-serif" font-size="12" font-weight="bold" lengthAdjust="spacingAndGlyphs" textLength="34" x="285.0416" y="79.8618">main</text><ellipse cx="468.1095" cy="190.8219" fill="#F8F8F8" rx="54.6095" ry="13.3219" style="stroke: #383838; stroke-width: 0.5;"/><text fill="#000000" font-family="Tahoma, sans-serif" font-size="12" lengthAdjust="spacingAndGlyphs" textLength="76" x="430.1095" y="194.3063">MetaMetrics</text><ellipse cx="357.8198" cy="131.8774" fill="#F8F8F8" rx="34.8198" ry="12.8774" style="stroke: #383838; stroke-width: 0.5;"/><text fill="#000000" font-family="Tahoma, sans-serif" font-size="12" lengthAdjust="spacingAndGlyphs" textLength="45" x="335.3198" y="135.3618">Metrics</text><ellipse cx="673.9787" cy="76.3957" fill="#F8F8F8" rx="54.9787" ry="13.3957" style="stroke: #383838; stroke-width: 0.5;"/><text fill="#000000" font-family="Tahoma, sans-serif" font-size="12" lengthAdjust="spacingAndGlyphs" textLength="77" x="635.4787" y="79.8801">MetricsPage</text><ellipse cx="171.2237" cy="191.0447" fill="#F8F8F8" rx="55.7237" ry="13.5447" style="stroke: #383838; stroke-width: 0.5;"/><text fill="#000000" font-family="Tahoma, sans-serif" font-size="12" lengthAdjust="spacingAndGlyphs" textLength="79" x="131.7237" y="194.5291">MetricsTable</text><ellipse cx="52.8406" cy="190.8774" fill="#F8F8F8" rx="46.8406" ry="12.8774" style="stroke: #383838; stroke-width: 0.5;"/><text fill="#000000" font-family="Tahoma, sans-serif" font-size="12" lengthAdjust="spacingAndGlyphs" textLength="62" x="21.8406" y="194.3618">NoMetrics</text><ellipse cx="215.2193" cy="76.3774" fill="#F8F8F8" rx="44.7193" ry="12.8774" style="stroke: #383838; stroke-width: 0.5;"/><text fill="#000000" font-family="Tahoma, sans-serif" font-size="12" lengthAdjust="spacingAndGlyphs" textLength="59" x="185.7193" y="79.8618">NotFound</text><ellipse cx="269.9558" cy="190.8774" fill="#F8F8F8" rx="28.4558" ry="12.8774" style="stroke: #383838; stroke-width: 0.5;"/><text fill="#000000" font-family="Tahoma, sans-serif" font-size="12" lengthAdjust="spacingAndGlyphs" textLength="36" x="251.9558" y="194.3618">parse</text><ellipse cx="566.8345" cy="131.8774" fill="#F8F8F8" rx="26.3345" ry="12.8774" style="stroke: #383838; stroke-width: 0.5;"/><text fill="#000000" font-family="Tahoma, sans-serif" font-size="12" lengthAdjust="spacingAndGlyphs" textLength="33" x="550.3345" y="135.3618">Repo</text><ellipse cx="681.774" cy="190.9548" fill="#F8F8F8" rx="70.274" ry="16.4548" style="stroke: #383838; stroke-width: 0.5;"/><text fill="#000000" font-family="Tahoma, sans-serif" font-size="12" lengthAdjust="spacingAndGlyphs" textLength="115" x="624.274" y="194.4392">RepoBreadcrumbs</text><ellipse cx="554.9619" cy="76.3774" fill="#F8F8F8" rx="48.9619" ry="12.8774" style="stroke: #383838; stroke-width: 0.5;"/><text fill="#000000" font-family="Tahoma, sans-serif" font-size="12" lengthAdjust="spacingAndGlyphs" textLength="65" x="522.4619" y="79.8618">RepoPage</text><ellipse cx="355.8909" cy="190.8774" fill="#F8F8F8" rx="41.8909" ry="12.8774" style="stroke: #383838; stroke-width: 0.5;"/><text fill="#000000" font-family="Tahoma, sans-serif" font-size="12" lengthAdjust="spacingAndGlyphs" textLength="55" x="328.3909" y="194.3618">Treemap</text><ellipse cx="356.0538" cy="252.6108" fill="#F8F8F8" rx="66.0538" ry="15.6108" style="stroke: #383838; stroke-width: 0.5;"/><text fill="#000000" font-family="Tahoma, sans-serif" font-size="12" lengthAdjust="spacingAndGlyphs" textLength="105" x="303.5538" y="256.0951">treemap_helpers</text><!--MD5=[72001ba73a07f29f1e30ec17f7d5d965]
link App to Home--><path d="M498.691,32.827 C492.013,40.593 482.914,51.176 475.448,59.859 " fill="none" id="App-&gt;Home" style="stroke: #000000; stroke-width: 0.5;"/><polygon fill="#000000" points="471.932,63.949,480.8327,59.7326,475.1918,60.1578,474.7667,54.5169,471.932,63.949" style="stroke: #000000; stroke-width: 0.5;"/><!--MD5=[009278657146c9dff4c3ad34084ccc7e]
link App to MetricsPage--><path d="M525.451,27.624 C551.871,36.139 602.62,52.495 637.382,63.698 " fill="none" id="App-&gt;MetricsPage" style="stroke: #000000; stroke-width: 0.5;"/><polygon fill="#000000" points="642.39,65.312,635.0517,58.7432,637.6312,63.7777,632.5968,66.3572,642.39,65.312" style="stroke: #000000; stroke-width: 0.5;"/><!--MD5=[40b476e3fbdf0311075de6a3f6261248]
link App to NotFound--><path d="M492.57,29.49 C488.554,31.194 484.179,32.841 480,34 C388.356,59.405 361.498,45.621 268,63 C262.911,63.946 257.575,65.059 252.33,66.224 " fill="none" id="App-&gt;NotFound" style="stroke: #000000; stroke-width: 0.5;"/><polygon fill="#000000" points="247.127,67.403,256.7881,69.3168,252.0036,66.2988,255.0215,61.5143,247.127,67.403" style="stroke: #000000; stroke-width: 0.5;"/><!--MD5=[5fb65d1b33a311ac54e9a9d34ad31aa3]
link App to RepoPage--><path d="M517.286,32.57 C523.999,40.211 533.191,50.675 540.82,59.358 " fill="none" id="App-&gt;RepoPage" style="stroke: #000000; stroke-width: 0.5;"/><polygon fill="#000000" points="544.421,63.458,541.4871,54.0563,541.1214,59.7013,535.4764,59.3356,544.421,63.458" style="stroke: #000000; stroke-width: 0.5;"/><!--MD5=[89cff1e9d8ac65aaafa97c4d4833bbf6]
link Embed to Metrics--><path d="M372.689,89.64 C370.114,96.891 366.805,106.207 363.98,114.162 " fill="none" id="Embed-&gt;Metrics" style="stroke: #000000; stroke-width: 0.5;"/><polygon fill="#000000" points="362.294,118.908,369.0748,111.7651,363.967,114.1962,361.5359,109.0884,362.294,118.908" style="stroke: #000000; stroke-width: 0.5;"/><!--MD5=[893f7b7637e22df589de0e5c7f34855e]
link <b>index</b> to App--><path d="M472.68,21 C476,21 479.319,21 482.639,21 " fill="none" id="&lt;b&gt;index&lt;/b&gt;-&gt;App" style="stroke: #000000; stroke-width: 1.0;"/><polygon fill="#000000" points="487.856,21,478.856,17,482.856,21,478.856,25,487.856,21" style="stroke: #000000; stroke-width: 1.0;"/><!--MD5=[ae0449918bafb7209867aa395f987320]
link <b>main</b> to Embed--><path d="M329.246,76.5 C332.511,76.5 335.775,76.5 339.039,76.5 " fill="none" id="&lt;b&gt;main&lt;/b&gt;-&gt;Embed" style="stroke: #000000; stroke-width: 1.0;"/><polygon fill="#000000" points="344.169,76.5,335.169,72.5,339.169,76.5,335.169,80.5,344.169,76.5" style="stroke: #000000; stroke-width: 1.0;"/><!--MD5=[7cf09e9cd9804897a30991cff4b9dc85]
link Metrics to _github--><path d="M388.273,138.554 C422.981,145.303 481.355,157.821 530,174 C530.946,174.3147 531.902,174.644 532.863,174.9852 " fill="none" id="Metrics-&gt;_github" style="stroke: #000000; stroke-width: 0.5;"/><polygon fill="#000000" points="537.694,176.7788,530.6486,169.8967,533.0065,175.0387,527.8645,177.3967,537.694,176.7788" style="stroke: #000000; stroke-width: 0.5;"/><!--MD5=[b699d488a8021972f0bb0af0060328fa]
link Metrics to MetaMetrics--><path d="M377.161,142.929 C394.94,152.142 421.57,165.941 441.406,176.2193 " fill="none" id="Metrics-&gt;MetaMetrics" style="stroke: #000000; stroke-width: 0.5;"/><polygon fill="#000000" points="446.037,178.6193,439.8858,170.9275,441.5974,176.3192,436.2057,178.0308,446.037,178.6193" style="stroke: #000000; stroke-width: 0.5;"/><!--MD5=[ee6a841277cedb64d3a129f604330a0f]
link Metrics to MetricsTable--><path d="M331.998,140.926 C299.92,150.704 245.143,167.4 208.514,178.5654 " fill="none" id="Metrics-&gt;MetricsTable" style="stroke: #000000; stroke-width: 0.5;"/><polygon fill="#000000" points="203.693,180.0347,213.4681,181.2381,208.4759,178.5775,211.1365,173.5854,203.693,180.0347" style="stroke: #000000; stroke-width: 0.5;"/><!--MD5=[f8ebcbd3c1c7d823464980021d096a60]
link Metrics to NoMetrics--><path d="M325.396,137.069 C277.44,143.343 185.211,156.505 108,174 C101.2761,175.5235 94.1604,177.3953 87.3582,179.315 " fill="none" id="Metrics-&gt;NoMetrics" style="stroke: #000000; stroke-width: 0.5;"/><polygon fill="#000000" points="82.2293,180.7873,91.9836,182.1485,87.0352,179.4076,89.7761,174.4591,82.2293,180.7873" style="stroke: #000000; stroke-width: 0.5;"/><!--MD5=[6daa539d8069e3eb417796fb3a8791fe]
link Metrics to parse--><path d="M341.448,143.721 C326.794,153.213 305.377,167.085 289.815,177.1652 " fill="none" id="Metrics-&gt;parse" style="stroke: #000000; stroke-width: 0.5;"/><polygon fill="#000000" points="285.592,179.9008,295.3203,178.3647,289.7884,177.1823,290.9708,171.6504,285.592,179.9008" style="stroke: #000000; stroke-width: 0.5;"/><!--MD5=[19529c9f7f380fd4bc340727fe577f79]
link Metrics to Treemap--><path d="M357.576,145.088 C357.292,153.174 356.915,163.934 356.6,172.895 " fill="none" id="Metrics-&gt;Treemap" style="stroke: #000000; stroke-width: 0.5;"/><polygon fill="#000000" points="356.424,177.9292,360.7373,169.0751,356.5994,172.9323,352.7422,168.7944,356.424,177.9292" style="stroke: #000000; stroke-width: 0.5;"/><!--MD5=[1a0afc44cd942b21664f8b54bf470dbb]
link MetricsPage to Metrics--><path d="M634.022,85.798 C626.706,87.249 619.131,88.706 612,90 C534.879,103.993 444.144,118.066 394.693,125.536 " fill="none" id="MetricsPage-&gt;Metrics" style="stroke: #000000; stroke-width: 0.5;"/><polygon fill="#000000" points="389.746,126.281,399.2412,128.8967,394.6903,125.5367,398.0503,120.9858,389.746,126.281" style="stroke: #000000; stroke-width: 0.5;"/><!--MD5=[7fbe30562cc245186e7d438bc82033d9]
link MetricsPage to RepoBreadcrumbs--><path d="M674.918,90.405 C676.286,109.641 678.874,146.034 680.514,169.0979 " fill="none" id="MetricsPage-&gt;RepoBreadcrumbs" style="stroke: #000000; stroke-width: 0.5;"/><polygon fill="#000000" points="680.889,174.3721,684.2406,165.1111,680.5344,169.3847,676.2607,165.6785,680.889,174.3721" style="stroke: #000000; stroke-width: 0.5;"/><!--MD5=[d9a2c990ebaf183b689ed040819f0c9b]
link Repo to _github--><path d="M567,145.088 C567,151.886 567,160.572 567,168.4914 " fill="none" id="Repo-&gt;_github" style="stroke: #000000; stroke-width: 0.5;"/><polygon fill="#000000" points="567,173.8186,571,164.8186,567,168.8186,563,164.8186,567,173.8186" style="stroke: #000000; stroke-width: 0.5;"/><!--MD5=[9d9ae4b070c6f742c106fc765eb2ac6a]
link Repo to RepoBreadcrumbs--><path d="M584.969,141.906 C602,150.348 628,163.235 648.801,173.5449 " fill="none" id="Repo-&gt;RepoBreadcrumbs" style="stroke: #000000; stroke-width: 0.5;"/><polygon fill="#000000" points="653.425,175.8369,647.1389,168.255,648.9455,173.6156,643.5849,175.4222,653.425,175.8369" style="stroke: #000000; stroke-width: 0.5;"/><!--MD5=[521d5688972225ca4d63a2752b13cdbb]
link RepoPage to Repo--><path d="M557.723,89.64 C559.319,96.754 561.36,105.856 563.122,113.71 " fill="none" id="RepoPage-&gt;Repo" style="stroke: #000000; stroke-width: 0.5;"/><polygon fill="#000000" points="564.288,118.908,566.2212,109.2507,563.1937,114.0292,558.4152,111.0017,564.288,118.908" style="stroke: #000000; stroke-width: 0.5;"/><!--MD5=[5d47da703deaefadc67bde52317df852]
link Treemap to treemap_helpers--><path d="M356,204.0407 C356,211.9888 356,222.5884 356,231.7541 " fill="none" id="Treemap-&gt;treemap_helpers" style="stroke: #000000; stroke-width: 0.5;"/><polygon fill="#000000" points="356,236.9542,360,227.9542,356,231.9542,352,227.9542,356,236.9542" style="stroke: #000000; stroke-width: 0.5;"/><script type="text/plantuml"><![CDATA[MD5=[def4cc1b6f41c78c58f9d24c4ef0ff58]
@startuml

scale max 1920 width
top to bottom direction

skinparam nodesep 15
skinparam ranksep 29
skinparam monochrome true
skinparam shadowing false
skinparam defaultFontName Tahoma
skinparam defaultFontSize 12
skinparam roundCorner 6
skinparam dpi 150
skinparam arrowColor black
skinparam arrowThickness 0.5
skinparam packageTitleAlignment left

skinparam usecase {
  borderThickness 0.5
}

skinparam rectangle {
  borderThickness 0.5
}

skinparam component {
  borderThickness 1
}


(App)
(Embed)
rectangle "github" as _github
(Home)
(<b>index</b>)
(<b>main</b>)
(MetaMetrics)
(Metrics)
(MetricsPage)
(MetricsTable)
(NoMetrics)
(NotFound)
(parse)
(Repo)
(RepoBreadcrumbs)
(RepoPage)
(Treemap)
(treemap_helpers)


(App) --> (Home)
(App) --> (MetricsPage)
(App) --> (NotFound)
(App) --> (RepoPage)
(Embed) --> (Metrics)
(<b>index</b>) -[thickness=1]> (App)
(<b>main</b>) -[thickness=1]> (Embed)
(Metrics) --> _github
(Metrics) --> (MetaMetrics)
(Metrics) --> (MetricsTable)
(Metrics) --> (NoMetrics)
(Metrics) --> (parse)
(Metrics) --> (Treemap)
(MetricsPage) --> (Metrics)
(MetricsPage) --> (RepoBreadcrumbs)
(Repo) --> _github
(Repo) --> (RepoBreadcrumbs)
(RepoPage) --> (Repo)
(Treemap) --> (treemap_helpers)

@enduml


' View and edit on https://arkit.pro
]]></script></g></svg>